<?xml version="1.0" encoding="UTF-8"?>
<svg version="1.1" xmlns="http://www.w3.org/2000/svg" width="512" height="512">
<path d="M0 0 C0.61858887 0.50144531 1.23717773 1.00289062 1.87451172 1.51953125 C14.82125485 12.11454479 26.78997566 23.72167819 37 37 C37.44520996 37.56348145 37.89041992 38.12696289 38.34912109 38.70751953 C63.35184205 70.35621231 79.49900516 107.43769589 87 147 C87.16226074 147.7832666 87.32452148 148.5665332 87.49169922 149.37353516 C95.03468574 186.57470399 90.89346049 227.99199109 80 264 C79.63962646 265.21864746 79.63962646 265.21864746 79.27197266 266.46191406 C70.54348852 295.38351281 55.30904661 322.86027677 36 346 C35.53126465 346.57024902 35.0625293 347.14049805 34.57958984 347.72802734 C23.89474996 360.70531679 12.34879932 372.73578379 -1 383 C-1.56348145 383.44520996 -2.12696289 383.89041992 -2.70751953 384.34912109 C-34.35621231 409.35184205 -71.43769589 425.49900516 -111 433 C-111.7832666 433.16226074 -112.5665332 433.32452148 -113.37353516 433.49169922 C-150.57470399 441.03468574 -191.99199109 436.89346049 -228 426 C-229.21864746 425.63962646 -229.21864746 425.63962646 -230.46191406 425.27197266 C-259.38351281 416.54348852 -286.86027677 401.30904661 -310 382 C-310.57024902 381.53126465 -311.14049805 381.0625293 -311.72802734 380.57958984 C-324.72390394 369.87944625 -336.66458323 358.31824844 -347 345 C-347.763125 344.06542969 -348.52625 343.13085938 -349.3125 342.16796875 C-374.0944202 311.23028312 -389.65036906 273.76396939 -397 235 C-397.24339111 233.8251001 -397.24339111 233.8251001 -397.49169922 232.62646484 C-409.48556891 173.47403631 -394.16791139 107.44674127 -361.84375 57.203125 C-356.94630216 49.8432349 -351.56531686 42.86355227 -346 36 C-345.49855469 35.38141113 -344.99710938 34.76282227 -344.48046875 34.12548828 C-333.87006411 21.15993776 -322.24829076 9.28112721 -309 -1 C-308.06542969 -1.763125 -307.13085938 -2.52625 -306.16796875 -3.3125 C-275.23028312 -28.0944202 -237.76396939 -43.65036906 -199 -51 C-198.2167334 -51.16226074 -197.4334668 -51.32452148 -196.62646484 -51.49169922 C-128.26264148 -65.35329052 -53.44188956 -43.33339898 0 0 Z M-63.32421875 73.0390625 C-64.38044434 73.49829102 -65.43666992 73.95751953 -66.52490234 74.43066406 C-72.98498864 77.34800527 -79.40601257 80.34197038 -85.8125 83.375 C-87.31068014 84.08184962 -88.80889035 84.78863552 -90.30712891 85.49536133 C-100.84264504 90.4723378 -111.33601468 95.53366057 -121.81387329 100.63067627 C-130.66577457 104.93510726 -139.55814427 109.13459954 -148.5 113.25 C-152.63279579 115.16433449 -156.76219336 117.08582132 -160.88861084 119.01385498 C-162.38436604 119.71246212 -163.88054307 120.41016644 -165.37701416 121.10723877 C-170.65375717 123.56717061 -175.91874467 126.05030119 -181.17285156 128.55822754 C-182.91428781 129.38569968 -184.65887587 130.20657535 -186.40673828 131.02038574 C-201.43611069 138.02767501 -208.11716421 143.86350739 -214.875 159.3125 C-216.00060194 161.82228353 -217.13718872 164.32705322 -218.2734375 166.83203125 C-218.71771088 167.816306 -218.71771088 167.816306 -219.17095947 168.82046509 C-222.44156932 176.03835892 -225.92062368 183.15218109 -229.40655518 190.26791382 C-235.42666957 202.55697849 -241.31225148 214.89244923 -247.02929688 227.32592773 C-252.24965143 238.63425195 -257.70298063 249.82678005 -263.17773438 261.01367188 C-266.13490501 267.05961105 -269.08836484 273.10741554 -271.93359375 279.20703125 C-272.31314209 280.02018799 -272.69269043 280.83334473 -273.08374023 281.67114258 C-275.38739681 287.52634644 -275.77778925 292.85338541 -273.5 298.75 C-270.73899517 304.14781222 -266.75041852 307.48726981 -261.5 310.375 C-248.93713276 313.51571681 -235.66645647 304.54786951 -224.6652832 299.10229492 C-220.80255026 297.19103583 -216.93052031 295.29879772 -213.05859375 293.40625 C-212.28301117 293.02682251 -211.50742859 292.64739502 -210.70834351 292.25646973 C-203.84861664 288.90865264 -196.93676889 285.68539112 -190 282.5 C-178.67688939 277.29306417 -167.46158022 271.88601724 -156.26791382 266.40756226 C-148.49234209 262.60254981 -140.7085556 258.8306301 -132.83203125 255.23828125 C-132.18865814 254.94408295 -131.54528503 254.64988464 -130.88241577 254.34677124 C-127.88705476 252.97909548 -124.88757289 251.62348237 -121.87890625 250.28515625 C-106.07272068 243.11454524 -100.18094412 234.23057543 -93.1875 218.625 C-92.05107726 216.12507362 -90.90719407 213.62860218 -89.76171875 211.1328125 C-89.46244476 210.47972107 -89.16317078 209.82662964 -88.85482788 209.15374756 C-85.19853097 201.20697057 -81.34380006 193.35725692 -77.5 185.5 C-71.85610687 173.94990363 -66.33725277 162.35729727 -60.97290039 150.67407227 C-57.91088366 144.03388256 -54.77227805 137.43899705 -51.55859375 130.87109375 C-51.17583282 130.0881192 -50.7930719 129.30514465 -50.39871216 128.4984436 C-48.51894294 124.65689235 -46.63184484 120.81916611 -44.734375 116.98632812 C-36.36619847 101.71088931 -36.36619847 101.71088931 -36 85 C-37.92307643 79.55128343 -41.25192604 76.14584324 -46 73 C-52.42864895 70.56154695 -57.03907786 70.30272745 -63.32421875 73.0390625 Z " fill="#8B5CF6" transform="translate(411,65)"/>
<path d="M0 0 C-1.39824247 4.47021598 -3.13525339 8.62849054 -5.1328125 12.86328125 C-5.44200623 13.52054199 -5.75119995 14.17780273 -6.06976318 14.85498047 C-7.08463261 17.00917909 -8.10466006 19.16088777 -9.125 21.3125 C-9.83490922 22.81594692 -10.54470571 24.31944708 -11.25439453 25.82299805 C-17.06301693 38.10814426 -22.97763377 50.34168952 -28.94580078 62.55004883 C-29.27066467 63.21601074 -29.59552856 63.88197266 -29.93023682 64.56811523 C-30.80475031 66.36032384 -31.68134802 68.15151503 -32.55810547 69.94262695 C-34.04070812 72.88255854 -34.04070812 72.88255854 -34.79125977 75.69287109 C-36.53289725 79.01714381 -39.17386087 79.991172 -42.47265625 81.42578125 C-43.13539551 81.7306395 -43.79813477 82.03549774 -44.48095703 82.34959412 C-46.66826356 83.35232567 -48.86516852 84.33195842 -51.0625 85.3125 C-53.36831958 86.36384596 -55.67129325 87.42126428 -57.97422791 88.47891235 C-59.56535934 89.20916329 -61.15738467 89.93746943 -62.7502594 90.66390991 C-71.25744245 94.54969467 -79.66159328 98.64072644 -88.0625 102.75 C-111.07479386 114 -111.07479386 114 -114 114 C-112.60175753 109.52978402 -110.86474661 105.37150946 -108.8671875 101.13671875 C-108.55799377 100.47945801 -108.24880005 99.82219727 -107.93023682 99.14501953 C-106.91536739 96.99082091 -105.89533994 94.83911223 -104.875 92.6875 C-104.16509078 91.18405308 -103.45529429 89.68055292 -102.74560547 88.17700195 C-96.93698307 75.89185574 -91.02236623 63.65831048 -85.05419922 51.44995117 C-84.56690338 50.4510083 -84.56690338 50.4510083 -84.06976318 49.43188477 C-83.19524969 47.63967616 -82.31865198 45.84848497 -81.44189453 44.05737305 C-79.95929188 41.11744146 -79.95929188 41.11744146 -79.20874023 38.30712891 C-77.46710275 34.98285619 -74.82613913 34.008828 -71.52734375 32.57421875 C-70.86460449 32.2693605 -70.20186523 31.96450226 -69.51904297 31.65040588 C-67.33173644 30.64767433 -65.13483148 29.66804158 -62.9375 28.6875 C-60.63168042 27.63615404 -58.32870675 26.57873572 -56.02577209 25.52108765 C-54.43464066 24.79083671 -52.84261533 24.06253057 -51.2497406 23.33609009 C-42.74255755 19.45030533 -34.33840672 15.35927356 -25.9375 11.25 C-2.92520614 0 -2.92520614 0 0 0 Z " fill="#8B5CF6" transform="translate(313,199)"/>
</svg>
