<?xml version="1.0" encoding="UTF-8"?>
<svg version="1.1" xmlns="http://www.w3.org/2000/svg" width="512" height="512">
<path d="M0 0 C28.66730265 0.04209589 60.24178708 31.87091831 79.72265625 50.56640625 C80.61766846 51.41259521 80.61766846 51.41259521 81.53076172 52.27587891 C117.48835785 86.37989419 140.54721716 134.02192853 155.72265625 180.56640625 C156.9604767 178.63442347 158.18737332 176.69544143 159.41015625 174.75390625 C160.09464844 173.67496094 160.77914063 172.59601563 161.484375 171.484375 C167.34092847 161.58438565 170.37988666 151.25134424 173.21484375 140.1796875 C173.4984375 139.11105469 173.78203125 138.04242188 174.07421875 136.94140625 C174.31994629 135.97976562 174.56567383 135.018125 174.81884766 134.02734375 C175.76986147 131.4378734 176.50666985 130.18934411 178.72265625 128.56640625 C182.19311687 128.432927 184.61451753 128.67573447 187.38720703 130.90429688 C191.78007137 135.39691071 195.64852089 140.11502972 199.34765625 145.19140625 C199.94956787 146.01552002 200.55147949 146.83963379 201.17163086 147.6887207 C217.09192061 169.79063689 231.12179137 194.03721721 240.72265625 219.56640625 C240.99126465 220.2732959 241.25987305 220.98018555 241.53662109 221.70849609 C249.18850342 242.20005758 253.40344201 263.86650725 255.72265625 285.56640625 C255.85414063 286.75363281 255.985625 287.94085938 256.12109375 289.1640625 C261.0526269 344.01070824 249.36025427 400.35101049 213.63671875 443.3515625 C213.00507813 444.08246094 212.3734375 444.81335938 211.72265625 445.56640625 C211.02914063 446.36949219 210.335625 447.17257812 209.62109375 448 C207.36010915 450.56058503 205.05461226 453.07033549 202.72265625 455.56640625 C201.52576172 456.86191406 201.52576172 456.86191406 200.3046875 458.18359375 C168.47829207 491.40630608 121.0238771 511.68425246 75.17578125 512.76953125 C20.33421997 513.36575901 -27.67074706 494.92401611 -67.31616211 456.81079102 C-74.33155013 449.9200656 -80.50059925 442.51623443 -86.27734375 434.56640625 C-86.69580566 433.99229004 -87.11426758 433.41817383 -87.54541016 432.82666016 C-110.74515053 400.55702519 -122.77006835 362.29283085 -122.65234375 322.62890625 C-122.65113525 321.86772491 -122.64992676 321.10654358 -122.64868164 320.32229614 C-122.51375955 288.78631412 -113.41526673 260.61242685 -100.765625 231.94189453 C-98.15383228 226.0182321 -95.5877022 220.07494899 -93.02734375 214.12890625 C-92.52170898 212.95473145 -92.01607422 211.78055664 -91.49511719 210.57080078 C-86.07627999 197.89771378 -81.2784978 185.0496735 -77.1015625 171.9140625 C-76.30346216 169.64080038 -75.55880242 167.60944356 -74.27734375 165.56640625 C-71.02734375 164.50390625 -71.02734375 164.50390625 -67.27734375 164.56640625 C-58.35029584 169.84976113 -53.95075726 180.95399944 -51.27734375 190.56640625 C-50.0930549 195.86600405 -49.16443141 201.21027846 -48.27734375 206.56640625 C-38.48082042 197.10257572 -29.06802976 187.77773396 -21.27734375 176.56640625 C-20.19839844 175.02919922 -20.19839844 175.02919922 -19.09765625 173.4609375 C-1.72736093 147.59094251 10.72256732 118.57646628 11.09765625 87.12890625 C11.11183594 86.248396 11.12601563 85.36788574 11.140625 84.46069336 C11.01399368 66.93650134 5.90417594 50.99816628 0.11206055 34.64819336 C-7.17580873 13.93990829 -7.17580873 13.93990829 -5.27734375 4.56640625 C-2.96641171 0.73778679 -2.96641171 0.73778679 0 0 Z " fill="#FD7307" transform="translate(188.27734375,-0.56640625)"/>
<path d="M0 0 C9.78924526 2.2590566 15.05667387 12.83421775 20.02392578 20.77685547 C20.42853027 21.42799316 20.83313477 22.07913086 21.25 22.75 C21.80856689 23.63969482 21.80856689 23.63969482 22.37841797 24.54736328 C25.09643451 28.89496816 27.68957866 33.30812529 30.25 37.75 C30.71164551 38.54229004 31.17329102 39.33458008 31.64892578 40.15087891 C47.06291839 66.77319871 56.40439557 94.66233011 62.25 124.75 C74.35348212 114.70510193 81.2160559 103.5774859 87.77734375 89.46484375 C88.28394531 88.40394531 88.79054688 87.34304688 89.3125 86.25 C89.75722656 85.2909375 90.20195312 84.331875 90.66015625 83.34375 C92.49251303 80.3543522 94.33793752 78.68379149 97.25 76.75 C101.87197031 76.65166021 104.28911443 78.29849999 107.72241211 81.25805664 C110.25768136 83.73416826 112.14990861 86.53001543 114.0625 89.5 C114.70034424 90.48009033 114.70034424 90.48009033 115.35107422 91.47998047 C137.95421457 126.822006 150.181084 171.94924637 141.5625 213.75 C140.86899519 216.77417088 140.08410764 219.76193204 139.25 222.75 C138.92257812 224.00683594 138.59515625 225.26367188 138.2578125 226.55859375 C133.37034046 243.12962121 124.49058667 258.69700603 113.25 271.75 C112.49976563 272.63816406 111.74953125 273.52632813 110.9765625 274.44140625 C88.72548748 300.01062404 56.11883261 316.33830661 22.25 318.75 C11.34425424 319.27761054 0.86791625 319.47660995 -9.75 316.75 C-10.96300781 316.48960937 -12.17601562 316.22921875 -13.42578125 315.9609375 C-34.73651241 311.06244505 -54.1793434 302.15201362 -70.75 287.75 C-71.58015625 287.04101562 -72.4103125 286.33203125 -73.265625 285.6015625 C-92.38731151 268.88475068 -106.05545159 247.29272444 -112.75 222.75 C-113.04414795 221.71673584 -113.04414795 221.71673584 -113.34423828 220.66259766 C-121.54217973 190.81351077 -118.28554756 157.71875366 -103.55224609 130.54052734 C-96.07042365 117.41833298 -86.44039915 106.30782638 -76.18261719 95.29589844 C-74.76007282 93.7608693 -73.35100263 92.21452795 -71.9453125 90.6640625 C-66.31470254 84.4736618 -60.51995019 78.50214991 -54.5625 72.625 C-48.51317129 66.63504774 -42.96499595 60.48923189 -37.75 53.75 C-36.89803408 52.69743361 -36.04374415 51.64674533 -35.1875 50.59765625 C-25.21089489 38.29067083 -16.013985 25.37613964 -9.33520508 10.96337891 C-4.83761504 1.31934956 -4.83761504 1.31934956 0 0 Z " fill="#FC9402" transform="translate(241.75,193.25)"/>
<path d="M0 0 C11.15067928 7.82920034 15.28515996 25.70045182 19.46334839 37.99768066 C23.45010224 49.68598019 27.87318224 60.99234464 33.2331543 72.13623047 C39.71055562 85.60912746 43.78270859 97.45892318 39.375 112.4375 C34.85769471 124.24589452 25.64367515 132.63314046 14.4296875 138.01953125 C13.60726562 138.36371094 12.78484375 138.70789063 11.9375 139.0625 C11.09703125 139.42859375 10.2565625 139.7946875 9.390625 140.171875 C-2.16577222 143.15248424 -18.05128895 143.189336 -28.765625 137.546875 C-29.90257812 136.81210937 -29.90257812 136.81210937 -31.0625 136.0625 C-31.79984375 135.59328125 -32.5371875 135.1240625 -33.296875 134.640625 C-35.33565973 133.21500861 -37.1943149 131.70374721 -39.0625 130.0625 C-39.66707031 129.55074219 -40.27164063 129.03898438 -40.89453125 128.51171875 C-51.37865203 118.94124684 -57.0967099 103.38617714 -58.28515625 89.4519043 C-59.55915014 60.03198085 -48.52050763 35.68350537 -29.5 13.625 C-21.60916661 5.14862774 -12.28748302 -3.76147439 0 0 Z " fill="#FCE101" transform="translate(263.0625,369.9375)"/>
<path d="M0 0 C0 0.66 0 1.32 0 2 C-11.01494915 4.16754569 -21.7802581 5.56208275 -33 6 C-33 5.67 -33 5.34 -33 5 C-31.95658447 4.83395264 -31.95658447 4.83395264 -30.89208984 4.66455078 C-27.71887004 4.15656074 -24.54695056 3.64085355 -21.375 3.125 C-20.28058594 2.95097656 -19.18617188 2.77695312 -18.05859375 2.59765625 C-13.7139605 1.88671626 -9.59741275 1.19913758 -5.4140625 -0.1953125 C-3 -1 -3 -1 0 0 Z " fill="#FE590A" transform="translate(297,506)"/>
</svg>
