<?xml version="1.0" encoding="UTF-8"?>
<svg version="1.1" xmlns="http://www.w3.org/2000/svg" width="512" height="512">
<path d="M0 0 C3.59407967 1.38096362 6.37053858 2.83229551 9.4140625 5.203125 C10.24744141 5.84636719 11.08082031 6.48960938 11.93945312 7.15234375 C12.82568359 7.84457031 13.71191406 8.53679687 14.625 9.25 C16.52244277 10.71483108 18.42090037 12.17834845 20.3203125 13.640625 C21.27454102 14.37603516 22.22876953 15.11144531 23.21191406 15.86914062 C27.26741633 18.96865234 31.37898363 21.98845447 35.5 25 C43.12805516 30.58571006 50.65646685 36.29277961 58.1640625 42.0390625 C63.89902727 46.42064326 69.67759563 50.73542958 75.5 55 C82.22497272 59.92564891 88.88046245 64.93356856 95.5 70 C102.49665907 75.3539086 109.53068436 80.65105351 116.625 85.875 C117.42486328 86.46410156 118.22472656 87.05320312 119.04882812 87.66015625 C124.34546317 92.09873589 124.34546317 92.09873589 130.58203125 94.07421875 C135.77566234 92.44193469 139.46829831 89.17980708 143.6875 85.8125 C145.57574367 84.3384602 147.46508846 82.86582996 149.35546875 81.39453125 C150.30341309 80.65283691 151.25135742 79.91114258 152.22802734 79.14697266 C156.26343471 76.02143343 160.37592754 73.00698162 164.5 70 C171.22611971 65.07595946 177.88056729 60.06648662 184.5 55 C191.88641792 49.34646605 199.33194466 43.78529806 206.8359375 38.2890625 C213.66555809 33.27462346 220.39873752 28.13912971 227.12670898 22.98950195 C235.38638355 16.67907671 243.74453226 10.50685563 252.13500977 4.37182617 C253.48040738 3.38219544 254.80407283 2.36278041 256.11303711 1.32543945 C258 0 258 0 260 0 C260.42188571 16.7073367 260.7385563 33.4129278 260.93261909 50.12431526 C261.02515464 57.8853142 261.15110392 65.64299084 261.35791016 73.40185547 C261.53824244 80.1707528 261.65365229 86.93724417 261.69359291 93.7084769 C261.71692321 97.29012144 261.7710246 100.86488917 261.90314102 104.44430923 C262.67292352 126.12509352 262.67292352 126.12509352 258.23076057 132.56484604 C254.0591448 136.88771471 249.33981427 140.00576488 244.0781002 142.854599 C241.46807198 144.29318648 239.15971288 146.02216759 236.82421875 147.8671875 C235.44687111 148.87193177 234.0680038 149.87459667 232.6875 150.875 C225.89637129 155.8377479 219.17845525 160.88670225 212.5 166 C205.11367991 171.65365962 197.66805268 177.21470389 190.1640625 182.7109375 C184.22328473 187.07277101 178.35249694 191.52058269 172.5 196 C164.91389264 201.80567297 157.28343396 207.54315469 149.56201172 213.16796875 C146.09435762 215.69688198 142.66096303 218.24128371 139.32421875 220.94140625 C138.77580322 221.378479 138.2273877 221.81555176 137.66235352 222.26586914 C136.24560753 223.40318071 134.84466399 224.56010329 133.4453125 225.71875 C131 227 131 227 128.6875 226.609375 C124.82526933 224.29652757 121.38136609 221.5658852 117.875 218.75 C111.56075188 213.7566191 105.18907178 208.87200628 98.6875 204.125 C91.89801774 199.15995481 85.17850859 194.1133386 78.5 189 C71.88061726 183.9333719 65.22496793 178.92564541 58.5 174 C50.8814701 168.41987275 43.36063999 162.72106195 35.86230469 156.98071289 C29.12581183 151.83321626 22.32603954 146.77804821 15.47851562 141.77929688 C14.07909637 140.75572881 12.68748582 139.72134726 11.3061285 138.67353153 C9.03960197 136.97447768 9.03960197 136.97447768 6.64755344 135.60533047 C3.03377983 133.28737173 0.45264692 131.50817595 -0.81338692 127.28987312 C-1.1089413 123.91895401 -1.11367831 120.65455387 -1.02172852 117.27172852 C-1.02304276 116.00274216 -1.02435699 114.7337558 -1.02571106 113.42631531 C-1.02828356 109.96286831 -0.97554695 106.50225185 -0.91254544 103.03946042 C-0.85611049 99.41479605 -0.85098358 95.79005972 -0.84031677 92.1650238 C-0.8123931 85.30810266 -0.73860916 78.45247988 -0.64817137 71.59612936 C-0.54741665 63.7873516 -0.49805158 55.97851034 -0.45291245 48.16924393 C-0.35895201 32.11207039 -0.2007504 16.05620112 0 0 Z " fill="#8B5CF6" transform="translate(126,117)"/>
<path d="M0 0 C0.06849057 29.51258554 0.12155626 59.02516731 0.15319599 88.53781568 C0.15694795 92.02488506 0.16083093 95.51195429 0.16479492 98.99902344 C0.16558185 99.69321358 0.16636878 100.38740371 0.16717956 101.10262991 C0.18022075 112.33148853 0.20386747 123.56030089 0.23145839 134.7891321 C0.25954847 146.31756654 0.27595942 157.8459685 0.28226548 169.3744365 C0.28617417 175.84702026 0.29535177 182.31949925 0.31719017 188.79204941 C0.33758815 194.88720083 0.34382703 200.98220455 0.33932304 207.07738686 C0.34014675 209.31142416 0.34609252 211.54546652 0.35761642 213.77947426 C0.37261217 216.83712045 0.36892764 219.89421395 0.36076355 222.95187378 C0.36950207 223.82933632 0.3782406 224.70679886 0.38724393 225.61085117 C0.32929048 233.67874523 -1.29019894 241.89661266 -6.34375 248.3984375 C-13.223303 255.05083545 -20.33515191 257.16018559 -29.61425781 257.11352539 C-30.37562042 257.11367142 -31.13698303 257.11381744 -31.92141724 257.1139679 C-34.43201571 257.11327255 -36.94253952 257.10549787 -39.453125 257.09765625 C-41.19618692 257.09579073 -42.93924937 257.09436746 -44.68231201 257.09336853 C-49.26572116 257.08955394 -53.84909851 257.07973267 -58.43249512 257.06866455 C-63.11124237 257.0584277 -67.78999477 257.05386604 -72.46875 257.04882812 C-81.64584728 257.03810946 -90.822921 257.02104572 -100 257 C-100.49171173 233.28681431 -100.86142838 209.57439791 -101.08805561 185.85713196 C-101.19610791 174.84312003 -101.34325309 163.83228447 -101.58422852 152.8203125 C-101.79429864 143.2160126 -101.92919217 133.61401315 -101.97585839 124.00747967 C-102.00312249 118.92466381 -102.06660583 113.84842509 -102.22033119 108.76773071 C-103.19045562 75.42231006 -103.19045562 75.42231006 -95.51913452 67.10693359 C-91.25859911 63.46976718 -86.73496117 60.81409516 -81.70133018 58.39047241 C-77.2611273 56.10493929 -73.43893441 53.04468973 -69.5 50 C-67.94027212 48.85039606 -66.37808242 47.70411814 -64.8125 46.5625 C-58.76538455 42.10673072 -52.80915327 37.53298096 -46.84472656 32.9675293 C-40.25909869 27.93579311 -33.61019615 22.9977438 -26.91796875 18.10888672 C-22.95053951 15.20296298 -19.02126689 12.25941551 -15.140625 9.23828125 C-14.36041992 8.63201904 -13.58021484 8.02575684 -12.77636719 7.40112305 C-11.29284429 6.24361242 -9.81406399 5.07998956 -8.34082031 3.90942383 C-7.68178711 3.39532959 -7.02275391 2.88123535 -6.34375 2.3515625 C-5.76818359 1.89604004 -5.19261719 1.44051758 -4.59960938 0.97119141 C-3 0 -3 0 0 0 Z " fill="#8B5CF6" transform="translate(500,180)"/>
<path d="M0 0 C3.47125009 0.77035348 5.4963157 1.90426476 8.31640625 4.10546875 C9.15300781 4.75193359 9.98960938 5.39839844 10.8515625 6.06445312 C11.74617188 6.76505859 12.64078125 7.46566406 13.5625 8.1875 C15.4690466 9.66145775 17.3766189 11.13408962 19.28515625 12.60546875 C20.24566895 13.34716309 21.20618164 14.08885742 22.19580078 14.85302734 C26.25473229 17.96065782 30.37231313 20.98464007 34.5 24 C41.22563791 28.92471864 47.88049943 33.93356645 54.5 39 C61.91241525 44.67237004 69.37224346 50.27130492 76.90625 55.78125 C78.32521931 56.81990406 79.7329631 57.87405556 81.12948608 58.94269943 C83.36526952 60.54508795 85.56361039 61.9442616 87.92251587 63.34187698 C99.81662742 70.74929834 99.81662742 70.74929834 101.45640564 77.03212738 C102.16174431 81.76924367 101.98412559 86.48165802 101.81640625 91.25292969 C101.81188491 93.06748044 101.81444241 94.88206039 101.82348633 96.69659424 C101.82805182 101.59089856 101.73445007 106.47884609 101.62230301 111.37168026 C101.52182915 116.49625246 101.51284884 121.62099375 101.49389648 126.74639893 C101.44429476 136.43720422 101.31318554 146.12509879 101.15230465 155.81462598 C100.97305296 166.8517663 100.88539315 177.8890506 100.80517769 188.92728567 C100.63823048 211.61980017 100.35706637 234.30973655 100 257 C90.00285059 257.09298497 80.00580532 257.16390896 70.00831032 257.20724869 C65.36524727 257.22805746 60.72248172 257.25625132 56.07958984 257.30175781 C51.59268678 257.34545647 47.10606853 257.36918749 42.61896896 257.37950897 C40.91346127 257.38685748 39.20796785 257.40120675 37.50258255 257.42292023 C26.91436968 257.55228 18.39290283 256.97780621 9.1875 251.25 C1.31100077 243.14845793 -0.31262202 234.1261309 -0.24050903 223.19238281 C-0.24221788 222.23407971 -0.24392673 221.27577662 -0.24568737 220.28843403 C-0.2489686 217.09325374 -0.23800106 213.89828578 -0.22705078 210.703125 C-0.22648637 208.40640772 -0.22680381 206.10969009 -0.22793579 203.81297302 C-0.22850914 197.58840695 -0.21675755 191.36391811 -0.20278788 185.13936996 C-0.19027769 178.63043358 -0.18910979 172.12149538 -0.18673706 165.61254883 C-0.18122896 154.69106674 -0.1687401 143.76961314 -0.15087891 132.84814453 C-0.13250547 121.60172669 -0.11835614 110.35531655 -0.10986328 99.10888672 C-0.10933783 98.41501854 -0.10881239 97.72115036 -0.10827102 97.00625587 C-0.10566084 93.52513239 -0.10313345 90.04400885 -0.10064721 86.56288528 C-0.0799323 57.70857149 -0.04457293 28.85428642 0 0 Z " fill="#8B5CF6" transform="translate(12,180)"/>
<path d="M0 0 C3.243126 2.24030451 6.40845013 4.57391275 9.5625 6.9375 C10.34818359 7.51951172 11.13386719 8.10152344 11.94335938 8.70117188 C14.30476403 10.45619114 16.65890248 12.21792473 19 14 C19.72185423 14.42053713 20.44370846 14.84107426 21.18743706 15.27435493 C24.8548669 17.62906985 27.53300818 19.44478705 28.8199873 23.73078632 C29.10857954 27.12416288 29.11355002 30.41542813 29.02172852 33.82006836 C29.02369987 35.73817825 29.02369987 35.73817825 29.02571106 37.69503784 C29.02828372 41.18533439 28.97554408 44.67282259 28.91254544 48.16246867 C28.85611344 51.81516145 28.8509838 55.4679255 28.84031677 59.12098694 C28.81239227 66.03102719 28.73860708 72.93977918 28.64817137 79.84925324 C28.54741935 87.71849077 28.49805223 95.58779129 28.45291245 103.45751369 C28.3589501 119.63909547 28.20074674 135.81938311 28 152 C26.55469787 151.04086559 25.10997439 150.08085918 23.66549683 149.1204834 C22.86090467 148.58597313 22.05631252 148.05146286 21.22733879 147.50075531 C18.81942091 145.87832788 16.49300814 144.18115096 14.1953125 142.40625 C13.37482422 141.77589844 12.55433594 141.14554688 11.70898438 140.49609375 C10.85626953 139.83738281 10.00355469 139.17867187 9.125 138.5 C2.30034275 133.26213585 -4.55743138 128.08057142 -11.5 123 C-18.2251972 118.07466202 -24.88043327 113.06637909 -31.5 108 C-39.77166278 101.6712837 -48.10985988 95.44126583 -56.5078125 89.28125 C-57.21566895 88.7344458 -57.92352539 88.1876416 -58.65283203 87.62426758 C-61.01592313 85.88918311 -61.01592313 85.88918311 -63.96826172 84.6315918 C-67.57771972 82.7402451 -69.57611836 81.30666331 -72 78 C-73.94533944 70.50447555 -73.15976063 62.47139861 -72.875 54.8125 C-72.84550765 52.69472231 -72.82072586 50.5768735 -72.80078125 48.45898438 C-72.56980823 33.61435849 -71.85127987 20.46915518 -63 8 C-62.278125 6.948125 -61.55625 5.89625 -60.8125 4.8125 C-43.31069328 -12.68930672 -19.83872766 -12.71311448 0 0 Z " fill="#8B5CF6" transform="translate(84,84)"/>
<path d="M0 0 C10.76110492 7.3413952 16.3463623 17.61664018 18.7437439 30.14050293 C21.22259772 45.41560219 24.31960654 68.84847976 17.65234375 83.17333984 C13.67100579 87.91156736 8.58717541 90.21175363 2.96337891 92.56201172 C-1.9988434 94.90913851 -6.05755751 98.45017406 -10.3125 101.875 C-12.079052 103.23474707 -13.84987365 104.5889658 -15.625 105.9375 C-16.49125 106.5975 -17.3575 107.2575 -18.25 107.9375 C-23.01194231 111.53799297 -27.83235055 115.05843568 -32.6484375 118.5859375 C-38.58921977 122.94777431 -44.45984983 127.39577747 -50.3125 131.875 C-57.35643333 137.26230943 -64.4311725 142.60378302 -71.5625 147.875 C-72.78743164 148.78378906 -72.78743164 148.78378906 -74.03710938 149.7109375 C-74.78283203 150.26007813 -75.52855469 150.80921875 -76.296875 151.375 C-76.95397461 151.8596875 -77.61107422 152.344375 -78.28808594 152.84375 C-79.8125 153.875 -79.8125 153.875 -80.8125 153.875 C-81.30503427 137.07209342 -81.67429892 120.27155681 -81.90055561 103.46315765 C-82.00845097 95.65672812 -82.1552464 87.85480396 -82.39672852 80.05126953 C-82.60733897 73.24205883 -82.74180708 66.43611025 -82.78835839 59.62373304 C-82.81554815 56.02082298 -82.87840267 52.42723476 -83.03283119 48.8273468 C-83.93002937 27.07754082 -83.93002937 27.07754082 -78.76690292 20.11746216 C-73.85546975 15.26689117 -68.33456783 11.66806388 -62.32956505 8.31330872 C-58.87417133 6.33881747 -55.79636672 4.02537603 -52.625 1.625 C-36.06924979 -9.64151053 -17.4298594 -10.15541395 0 0 Z " fill="#8B5CF6" transform="translate(480.8125,82.125)"/>
</svg>
