<?xml version="1.0" encoding="UTF-8"?>
<svg version="1.1" xmlns="http://www.w3.org/2000/svg" width="512" height="512">
<path d="M0 0 C0.89106445 -0.00979385 1.78212891 -0.01958771 2.70019531 -0.02967834 C58.80257053 -0.51906364 112.2882266 13.10975642 156.4453125 49.23828125 C157.44175781 50.03105469 158.43820312 50.82382812 159.46484375 51.640625 C173.84638089 63.26849327 187.36351167 76.60617128 198.2421875 91.58642578 C199.46616016 93.26690448 200.71896438 94.92270539 201.9765625 96.578125 C208.74581161 105.61507257 214.24373394 115.23071344 219.4453125 125.23828125 C220.02345703 126.3375293 220.02345703 126.3375293 220.61328125 127.45898438 C237.43095429 159.80287092 244.9018535 195.37407096 244.8203125 231.61328125 C244.81949677 232.98741684 244.81949677 232.98741684 244.81866455 234.38931274 C244.77633374 249.97568555 243.74613369 264.95753899 240.4453125 280.23828125 C240.12385254 281.72980713 240.12385254 281.72980713 239.79589844 283.25146484 C234.64174009 306.28762671 226.12200907 329.08446503 213.6328125 349.17578125 C210.61142988 354.4234458 209.56708363 360.25743151 210.4453125 366.23828125 C213.57566217 376.92270828 222.28929508 384.22058377 230.01171875 391.76171875 C231.64823197 393.37585052 233.28428577 394.99044818 234.91992188 396.60546875 C237.46503049 399.11352101 240.01301247 401.61836078 242.5690918 404.11523438 C245.05930884 406.55060293 247.53632509 408.99879618 250.01171875 411.44921875 C251.14632286 412.54814957 251.14632286 412.54814957 252.30384827 413.66928101 C261.95602229 423.27398477 268.39700813 434.91377694 268.7578125 448.73828125 C268.62165559 459.80783774 265.25977793 469.33097068 257.4453125 477.23828125 C248.19518808 486.03376818 238.61086547 488.86422244 226.08056641 488.70898438 C209.95091237 488.07045522 200.42567383 478.56397007 189.66015625 467.5078125 C188.28403552 466.11287042 186.90790255 464.71794019 185.53106785 463.32370281 C182.17768565 459.92485169 178.83558837 456.51496954 175.4987793 453.09985352 C173.61261352 451.17028454 171.72105113 449.24630013 169.82362366 447.32780457 C168.04855961 445.53221265 166.28168559 443.72847518 164.5243988 441.91548157 C157.56120912 434.894288 151.06159188 430.33212305 140.87109375 429.91015625 C133.9844638 430.84168107 127.9819577 434.47993942 122.0078125 437.80078125 C92.3497657 453.77550879 58.02939912 464.2558234 24.15234375 464.44140625 C23.29209091 464.44842056 22.43183807 464.45543488 21.54551697 464.46266174 C18.78289499 464.48007686 16.02048736 464.48651453 13.2578125 464.48828125 C12.31401733 464.48895599 11.37022217 464.48963074 10.39782715 464.49032593 C-3.47786674 464.4745467 -16.92177046 464.02914236 -30.5546875 461.23828125 C-31.42786621 461.07199219 -32.30104492 460.90570313 -33.20068359 460.734375 C-68.99850855 453.84649847 -103.30294844 438.35334048 -131.5546875 415.23828125 C-132.55113281 414.44550781 -133.54757813 413.65273438 -134.57421875 412.8359375 C-149.51523498 400.75571499 -163.36180785 386.87160047 -174.5546875 371.23828125 C-175.00215332 370.62452637 -175.44961914 370.01077148 -175.91064453 369.37841797 C-183.34514844 359.1394208 -189.71177477 348.45507699 -195.5546875 337.23828125 C-196.0820752 336.24054688 -196.0820752 336.24054688 -196.62011719 335.22265625 C-212.64509617 304.55284002 -219.95047942 269.79225593 -219.87036133 235.38598633 C-219.86721056 232.57137912 -219.89073074 229.7578371 -219.91601562 226.94335938 C-219.97622642 209.92671214 -217.95939697 193.33267815 -213.8671875 176.80078125 C-213.61155029 175.76131348 -213.35591309 174.7218457 -213.0925293 173.65087891 C-205.1583233 142.52419654 -190.64295189 113.30478917 -170.5546875 88.23828125 C-169.78511719 87.26503906 -169.01554687 86.29179688 -168.22265625 85.2890625 C-156.10903516 70.30166799 -142.17332316 56.53390168 -126.5546875 45.23828125 C-125.6884375 44.60019531 -124.8221875 43.96210937 -123.9296875 43.3046875 C-88.42710117 17.75875599 -44.10921596 0.40258326 0 0 Z M-21.5546875 84.23828125 C-22.30717773 84.42632324 -23.05966797 84.61436523 -23.83496094 84.80810547 C-43.35580631 89.7373346 -61.39352368 98.22915583 -77.5546875 110.23828125 C-78.49054688 110.93179688 -79.42640625 111.6253125 -80.390625 112.33984375 C-106.43613978 132.73325268 -124.64894849 160.2403942 -133.8671875 191.92578125 C-134.10977295 192.7561792 -134.3523584 193.58657715 -134.60229492 194.44213867 C-138.03890246 206.8583867 -138.93195731 219.1112956 -138.8671875 231.92578125 C-138.86536469 232.67462585 -138.86354187 233.42347046 -138.86166382 234.19500732 C-138.68979299 276.14828465 -121.43308583 312.93324167 -92.09375 342.73828125 C-57.65142011 374.77765789 -16.47062508 384.78042619 29.4453125 383.23828125 C35.301194 382.83307735 40.76734608 381.75895861 46.4453125 380.23828125 C47.57404785 379.95621826 47.57404785 379.95621826 48.72558594 379.66845703 C68.24643131 374.7392279 86.28414868 366.24740667 102.4453125 354.23828125 C103.38117188 353.54476563 104.31703125 352.85125 105.28125 352.13671875 C131.31448794 331.75292247 149.50189063 304.26836278 158.7578125 272.61328125 C159.00039795 271.79126221 159.2429834 270.96924316 159.49291992 270.12231445 C162.98301157 257.56217903 163.82597446 244.952872 163.7578125 231.98828125 C163.75598969 231.26527832 163.75416687 230.54227539 163.75228882 229.79736328 C163.70529891 218.7059078 163.16325021 208.02906076 160.4453125 197.23828125 C160.28434082 196.56055664 160.12336914 195.88283203 159.95751953 195.18457031 C154.07918746 170.95974364 141.94464844 149.70657118 125.4453125 131.23828125 C124.75695312 130.41714844 124.06859375 129.59601563 123.359375 128.75 C118.31309418 122.7871498 112.60503678 118.01809429 106.4453125 113.23828125 C105.54167969 112.50738281 104.63804687 111.77648437 103.70703125 111.0234375 C69.8655218 84.39021637 20.39687489 73.00278134 -21.5546875 84.23828125 Z " fill="#92a2b9" transform="translate(227.5546875,7.76171875)"/>
</svg>
