<?xml version="1.0" encoding="UTF-8"?>
<svg version="1.1" xmlns="http://www.w3.org/2000/svg" width="512" height="512">
<path d="M0 0 C1.01707031 -0.02578125 2.03414062 -0.0515625 3.08203125 -0.078125 C9.87128192 0.63922979 13.86951573 4.55737298 18.5 9.125 C60.72574408 49.41409596 117.476852 69.935117 175.21875 72.73828125 C176.00008301 72.77721497 176.78141602 72.81614868 177.58642578 72.85626221 C181.47642248 73.04614252 185.36530504 73.21180782 189.2578125 73.34033203 C204.7441403 73.94814857 204.7441403 73.94814857 211.02734375 80.03125 C211.38957031 80.5984375 211.75179688 81.165625 212.125 81.75 C212.50527344 82.3171875 212.88554687 82.884375 213.27734375 83.46875 C214.93561559 86.71412322 215.31542318 89.86845856 215.39282227 93.4777832 C215.41275238 94.31767288 215.4326825 95.15756256 215.45321655 96.02290344 C215.46994415 96.93960312 215.48667175 97.8563028 215.50390625 98.80078125 C215.5248233 99.77778488 215.54574036 100.75478851 215.56729126 101.76139832 C215.63442171 105.02834449 215.69312516 108.29535985 215.75 111.5625 C215.77051422 112.69413574 215.79102844 113.82577148 215.81216431 114.99169922 C217.37652412 203.26617865 217.37652412 203.26617865 214.1875 240.25 C214.08566406 241.44157715 213.98382813 242.6331543 213.87890625 243.86083984 C206.73147191 323.50840681 178.74519374 400.34271858 115.9375 452.8125 C114.03514997 454.31003447 112.11621951 455.78658407 110.1875 457.25 C109.50171875 457.7744873 108.8159375 458.29897461 108.109375 458.83935547 C97.83457132 466.66996159 87.46831387 473.95247081 76.1875 480.25 C74.94395752 480.94971924 74.94395752 480.94971924 73.67529297 481.66357422 C12.57331164 515.92955654 12.57331164 515.92955654 -7.09423828 511.76708984 C-9.39307742 511.07287834 -11.6280789 510.2848033 -13.875 509.4375 C-14.72296143 509.1276416 -15.57092285 508.8177832 -16.44458008 508.49853516 C-50.51532066 495.76853746 -82.19696021 478.70033782 -110.8125 456.25 C-111.35261719 455.82702637 -111.89273438 455.40405273 -112.44921875 454.96826172 C-118.26916487 450.38157245 -123.68730654 445.59589557 -128.8125 440.25 C-131.28890706 437.75322775 -133.78082572 435.28034218 -136.3203125 432.84765625 C-143.56204101 425.83290729 -149.79375111 418.3292413 -155.8125 410.25 C-156.46049561 409.3852002 -156.46049561 409.3852002 -157.12158203 408.50292969 C-163.6297171 399.76787307 -169.42854067 390.71596209 -174.8125 381.25 C-175.17698242 380.61819824 -175.54146484 379.98639648 -175.91699219 379.33544922 C-199.62798188 337.90923201 -209.41669876 289.63535623 -213.5625 242.5625 C-213.65124893 241.5588591 -213.65124893 241.5588591 -213.74179077 240.53494263 C-214.15368085 235.77649153 -214.50333984 231.01600762 -214.8125 226.25 C-214.86122253 225.50073242 -214.90994507 224.75146484 -214.96014404 223.97949219 C-215.92981531 208.38733953 -215.97324954 192.80110134 -215.94147491 177.18375778 C-215.93745278 175.10054271 -215.93496724 173.01733032 -215.93280029 170.93411255 C-215.91076043 152.45574899 -215.80436396 133.97826865 -215.49310303 115.5022583 C-215.45629721 113.30809007 -215.42228021 111.11387313 -215.39117432 108.9196167 C-215.34633131 105.89274266 -215.28864948 102.86640718 -215.2265625 99.83984375 C-215.21500122 98.96360855 -215.20343994 98.08737335 -215.19152832 97.18458557 C-214.99639333 89.16302354 -213.75485156 83.0602993 -207.8125 77.25 C-202.8251974 74.71098198 -198.97698941 73.84215153 -193.31640625 73.625 C-192.61457214 73.59319138 -191.91273804 73.56138275 -191.18963623 73.52861023 C-189.6929435 73.46102529 -188.19600306 73.39874589 -186.69888306 73.34140015 C-182.75059291 73.18611079 -178.80514244 72.97838358 -174.859375 72.76953125 C-174.07649612 72.72842728 -173.29361725 72.6873233 -172.48701477 72.64497375 C-162.18190024 72.08151178 -151.99786031 70.90754423 -141.8125 69.25 C-140.87035645 69.09724609 -139.92821289 68.94449219 -138.95751953 68.78710938 C-95.21063261 61.36912686 -53.8400627 41.96025123 -21.3515625 11.58203125 C-8.88736906 0.13414897 -8.88736906 0.13414897 0 0 Z M73.1875 177.25 C72.775 177.66773682 72.3625 178.08547363 71.9375 178.51586914 C68.63737357 181.85236694 65.3292966 185.18085158 62.0078125 188.49609375 C61.37633301 189.12700928 60.74485352 189.7579248 60.09423828 190.40795898 C57.57627774 192.84048297 54.94985439 195.12714237 52.2734375 197.3828125 C48.68507281 200.59486928 45.3516979 204.06691491 41.96655273 207.49047852 C38.52681413 210.95419091 35.00178338 214.22140035 31.27734375 217.37890625 C27.91253925 220.39150691 24.78204812 223.63572042 21.60913086 226.84790039 C18.30150237 230.18059062 14.89093393 233.30208116 11.3125 236.34375 C8.49356044 238.87250461 5.84811424 241.55646246 3.1875 244.25 C-0.61353585 248.09801296 -4.46126908 251.76496603 -8.60546875 255.24609375 C-10.50721804 256.97281478 -12.27604301 258.7434293 -14.05078125 260.59765625 C-14.62900635 261.19715088 -15.20723145 261.79664551 -15.80297852 262.41430664 C-16.96160623 263.62309279 -18.10960353 264.84217312 -19.24584961 266.07202148 C-20.859375 267.75 -20.859375 267.75 -23.8125 270.25 C-27.86107856 269.81126383 -29.40472069 267.8426895 -32 264.8125 C-32.78761719 263.90628906 -33.57523438 263.00007813 -34.38671875 262.06640625 C-35.18722656 261.13699219 -35.98773438 260.20757812 -36.8125 259.25 C-38.30808597 257.57937126 -39.80799275 255.91259908 -41.3125 254.25 C-50.3125 244.25 -50.3125 244.25 -52.55078125 241.76171875 C-54.08812686 240.05444202 -55.62725555 238.34876956 -57.16796875 236.64453125 C-61.45166046 231.90161631 -65.67946092 227.12486661 -69.8125 222.25 C-75.42401398 226.28339157 -80.55701739 230.61518525 -85.5625 235.375 C-86.20832031 235.98214844 -86.85414063 236.58929688 -87.51953125 237.21484375 C-90.66553151 240.17996515 -93.77828791 243.169815 -96.8125 246.25 C-91.96944272 251.65509109 -87.10128432 257.03426223 -82.1875 262.375 C-78.62741722 266.24632355 -75.12544025 270.15948039 -71.6796875 274.1328125 C-68.83455329 277.35888518 -65.91617121 280.5173544 -63.00439453 283.68310547 C-60.04814718 286.89844194 -57.10833423 290.12735914 -54.1875 293.375 C-53.46691406 294.17550781 -52.74632812 294.97601563 -52.00390625 295.80078125 C-50.48356366 297.49998767 -48.97106869 299.20623558 -47.46484375 300.91796875 C-40.33879816 309.78823628 -40.33879816 309.78823628 -30.52734375 314.55859375 C-22.86384748 314.91428345 -18.58406995 313.24103382 -12.8125 308.25 C-10.99954641 306.55687916 -9.26099441 304.82405044 -7.55078125 303.02734375 C-5.75928777 301.19559199 -3.88542495 299.53861244 -1.9375 297.875 C1.0721753 295.28365795 3.89838616 292.57745217 6.6875 289.75 C10.04864482 286.3428121 13.52451203 283.17541826 17.15625 280.0625 C19.42388572 278.0390712 21.5532695 275.91346653 23.6875 273.75 C27.04864482 270.3428121 30.52451203 267.17541826 34.15625 264.0625 C36.42388572 262.0390712 38.5532695 259.91346653 40.6875 257.75 C44.04864482 254.3428121 47.52451203 251.17541826 51.15625 248.0625 C54.22724317 245.32222917 57.07536876 242.37053098 59.96484375 239.44140625 C62.6145144 236.82898932 65.39922803 234.41697379 68.22265625 231.99609375 C70.29570324 230.15384325 72.24185802 228.22598338 74.1875 226.25 C76.74740134 223.65017817 79.3552954 221.18731602 82.125 218.8125 C86.71965557 214.86254907 90.94332336 210.56951705 95.1875 206.25 C96.18639197 205.24889319 97.18592147 204.24841898 98.1875 203.25 C97.61902344 202.693125 97.05054688 202.13625 96.46484375 201.5625 C92.08717092 197.23598528 87.89383604 192.84217488 83.88671875 188.171875 C81.13019309 185.05414942 78.16399178 182.15580992 75.1875 179.25 C74.1975 178.26 74.1975 178.26 73.1875 177.25 Z " fill="#8B5CF6" transform="translate(255.8125,-0.25)"/>
</svg>
